<svg width="22" height="22" viewBox="0 0 22 22" fill="none" xmlns="http://www.w3.org/2000/svg">
<path d="M11 20.1667C5.93723 20.1667 1.83331 16.0627 1.83331 11C1.83331 5.93725 5.93723 1.83333 11 1.83333C16.0627 1.83333 20.1666 5.93725 20.1666 11C20.1666 16.0627 16.0627 20.1667 11 20.1667ZM11 18.3333C12.9449 18.3333 14.8102 17.5607 16.1854 16.1854C17.5607 14.8102 18.3333 12.9449 18.3333 11C18.3333 9.05508 17.5607 7.18982 16.1854 5.81455C14.8102 4.43928 12.9449 3.66667 11 3.66667C9.05506 3.66667 7.1898 4.43928 5.81453 5.81455C4.43926 7.18982 3.66665 9.05508 3.66665 11C3.66665 12.9449 4.43926 14.8102 5.81453 16.1854C7.1898 17.5607 9.05506 18.3333 11 18.3333ZM10.0861 14.6667L6.19665 10.7773L7.49281 9.48108L10.0861 12.0743L15.2716 6.88875L16.5678 8.18492L10.0861 14.6667Z" fill="black"/>
</svg>
